<svg xmlns="http://www.w3.org/2000/svg" viewBox="0 0 200 200"><path d="M177.3 200H22.7C10.2 200 0 189.8 0 177.3V22.7C0 10.2 10.2 0 22.7 0h154.6C189.8 0 200 10.2 200 22.7v154.6c0 12.5-10.2 22.7-22.7 22.7z" fill="#00dbe5"/><path d="M40.8 145h4v15h-4v-15zm-5.6-79.1l-9 9 9 9.1V65.9zm5.6 48.6h4v15h-4v-15zm0-30.5h4v15h-4V84zm0-33.1h4v15h-4v-15zm19.9-20v4h-15v-4h15zm36.6 35h-4v-15h4v15zm5.6 79.1l9.1-9.1-9-9-.1 18.1zm-5.6-48.6h-4v-15h4v15zm0 30.5h-4v-15h4v15zm0 33h-4v-15h4v15zm-5.1-129v4h-15v-4h15zm35.7 127v4h-15v-4h15zm1.5-47l-9 9.1 9 9v-18.1zm6.7 18.6h4v15h-4v-15zm0-33.1h4v15h-4v-15zm20.5-16.8v3.8h-15v-3.8h15zm33.5-.2v3.8h-15v-3.8h15zm-15.4-4.5l-9-9-9 9h18z" fill="#fff"/></svg>