<svg version="1.1" id="Calque_1" xmlns="http://www.w3.org/2000/svg" x="0" y="0" viewBox="0 0 200 200" xml:space="preserve"><style>.st1{fill:#fff}</style><path d="M177.3 200H22.7C10.2 200 0 189.8 0 177.3V22.7C0 10.2 10.2 0 22.7 0h154.6C189.8 0 200 10.2 200 22.7v154.6c0 12.5-10.2 22.7-22.7 22.7z" fill="#00dbe5"/><path class="st1" d="M40.8 145h2v15h-2v-15zm-5.6-79.1l-9 9 9 9.1V65.9zm5.6 48.6h2v15h-2v-15zm0-30.5h2v15h-2V84zm0-33.1h2v15h-2v-15zM55.7 30.9v2h-15v-2h15zM97.3 65.9h-2v-15h2v15zM102.9 145l9.1-9.1-9-9-.1 18.1zM97.3 96.4h-2v-15h2v15zM97.3 126.9h-2v-15h2v15zM97.3 159.9h-2v-15h2v15zM87.2 30.9v2h-15v-2h15zM130.6 158v2h-15v-2h15zM129.4 110.9l-9 9.1 9 9v-18.1zm6.7 18.6h2v15h-2v-15zm0-33.1h2v15h-2v-15zM153.6 90.5v2h-15v-2h15zM187.1 90.4v2h-15v-2h15zM171.7 85.9l-9-9-9 9h18z"/></svg>