<?xml version="1.0" encoding="utf-8"?>
<!-- Generator: Adobe Illustrator 25.2.1, SVG Export Plug-In . SVG Version: 6.00 Build 0)  -->
<svg version="1.1" id="Calque_1" xmlns="http://www.w3.org/2000/svg" xmlns:xlink="http://www.w3.org/1999/xlink" x="0px" y="0px"
	 viewBox="0 0 200 200" style="enable-background:new 0 0 200 200;" xml:space="preserve">
<style type="text/css">
	.st0{fill:#00DBE5;}
	.st1{fill:#FFFFFF;}
</style>
<path class="st0" d="M177.3,200H22.7C10.2,200,0,189.8,0,177.3V22.7C0,10.2,10.2,0,22.7,0h154.6C189.8,0,200,10.2,200,22.7v154.6
	C200,189.8,189.8,200,177.3,200z"/>
<path class="st1" d="M40.8,145h4v15h-4V145z M35.2,65.9l-9,9l9,9.1V65.9z M40.8,114.5h4v15h-4V114.5z M40.8,84h4v15h-4V84z
	 M40.8,50.9h4v15h-4V50.9z M60.7,30.9v4h-15v-4C45.7,30.9,60.7,30.9,60.7,30.9z M97.3,65.9h-4v-15h4V65.9z M102.9,145l9.1-9.1l-9-9
	L102.9,145z M97.3,96.4h-4v-15h4V96.4z M97.3,126.9h-4v-15h4V126.9z M97.3,159.9h-4v-15h4V159.9z M92.2,30.9v4h-15v-4
	C77.2,30.9,92.2,30.9,92.2,30.9z M127.9,157.9v4h-15v-4H127.9z M129.4,110.9l-9,9.1l9,9V110.9z M136.1,129.5h4v15h-4V129.5z
	 M136.1,96.4h4v15h-4V96.4z M156.6,79.6v3.8h-15v-3.8H156.6z M190.1,79.4v3.8h-15v-3.8H190.1z M174.7,74.9l-9-9l-9,9H174.7z"/>
</svg>
