<?xml version="1.0" encoding="utf-8"?>
<!-- Generator: Adobe Illustrator 25.2.0, SVG Export Plug-In . SVG Version: 6.00 Build 0)  -->
<svg version="1.1" id="Calque_1" xmlns="http://www.w3.org/2000/svg" xmlns:xlink="http://www.w3.org/1999/xlink" x="0px" y="0px"
	 viewBox="0 0 26.6 30.6" style="enable-background:new 0 0 26.6 30.6;" xml:space="preserve">
<style type="text/css">
	.st0{fill:#FFFFFF;}
</style>
<path class="st0" d="M22.6,30L0.2,3.4C0.1,3.1,0.1,2.8,0.4,2.5L3,0.4c0.3-0.2,0.6-0.2,0.9,0.2l22.4,26.6c0.2,0.3,0.2,0.6-0.2,0.9
	l-2.6,2.1C23.2,30.3,22.8,30.3,22.6,30z"/>
<path class="st0" d="M26.4,3.4L4,30c-0.2,0.3-0.6,0.3-0.9,0.2L0.7,28c-0.3-0.2-0.3-0.6-0.2-0.9L22.9,0.6c0.2-0.3,0.6-0.3,0.9-0.2
	l2.6,2.1C26.5,2.8,26.5,3.1,26.4,3.4z"/>
</svg>
