<?xml version="1.0" encoding="utf-8"?>
<!-- Generator: Adobe Illustrator 25.2.1, SVG Export Plug-In . SVG Version: 6.00 Build 0)  -->
<svg version="1.1" id="Calque_1" xmlns="http://www.w3.org/2000/svg" xmlns:xlink="http://www.w3.org/1999/xlink" x="0px" y="0px"
	 viewBox="0 0 100 100" style="enable-background:new 0 0 100 100;" xml:space="preserve">
<style type="text/css">
	.st0{fill:#FFFFFF;}
	.st1{fill:#020203;}
	.st2{fill:#00DBE5;}
</style>
<path class="st0" d="M88.7,100H11.4C5.1,100,0,94.9,0,88.7V11.4C0,5.1,5.1,0,11.4,0h77.3C94.9,0,100,5.1,100,11.4v77.3
	C100,94.9,94.9,100,88.7,100z"/>
<path class="st1" d="M19.9,36.5c0,0,0.1-0.4,0.2-0.9c0.1-0.5,0.4-1.1,0.5-1.8c0.2-0.6,0.5-1.3,0.8-2c0.2-0.6,0.4-1.3,0.5-1.6
	c0.9-2.5,1.6-3.8,2.3-3.8s0.9,0.6,1.1,2c0.1,1.4,0.2,3.1,0,5.3c-0.1,2.1-0.5,4.2-0.9,5.9c-0.5,1.9-1.1,3.3-1.8,4.3
	c-0.6,1-1.6,1-2.6-0.1v-1.4v-2.3v-2.3C19.9,37.3,19.9,36.8,19.9,36.5z"/>
<path class="st2" d="M33.9,82.8C30.1,70.2,114.6,54.6,45,45.5c-15.3-2.4-4.7-10.2,3.6-15.3c7.1-3.5,24.6-20.6,29.7-8.9
	c-8.8,8.2-21.1,11.1-30.8,18.9c-1.3,6,28.4,3.8,32.3,13.3C84,68.2,45.5,82.2,33.9,82.8L33.9,82.8z"/>
</svg>
