<svg version="1.1" id="Calque_1" xmlns="http://www.w3.org/2000/svg" x="0" y="0" viewBox="0 0 200 200" xml:space="preserve"><style>.st1{fill:#fff}</style><path d="M177.3 200H22.7C10.2 200 0 189.8 0 177.3V22.7C0 10.2 10.2 0 22.7 0h154.6C189.8 0 200 10.2 200 22.7v154.6c0 12.5-10.2 22.7-22.7 22.7z" fill="#00dbe5"/><path class="st1" d="M167.4 47.8H180v12.6h-12.6V47.8zm0 46.9H180v12.6h-12.6V94.7zm0 46.9H180v12.6h-12.6v-12.6zM20.4 98.5h127.8v5H20.4v-5zm0 46.9h127.8v5H20.4v-5zM20.4 51.3h127.8v5H20.4z"/></svg>