<?xml version="1.0" encoding="utf-8"?>
<!-- Generator: Adobe Illustrator 25.2.1, SVG Export Plug-In . SVG Version: 6.00 Build 0)  -->
<svg version="1.1" id="Calque_1" xmlns="http://www.w3.org/2000/svg" xmlns:xlink="http://www.w3.org/1999/xlink" x="0px" y="0px"
	 viewBox="0 0 200 200" style="enable-background:new 0 0 200 200;" xml:space="preserve">
<style type="text/css">
	.st0{fill:#00DBE5;}
	.st1{fill:#FFFFFF;}
</style>
<path class="st0" d="M177.3,200H22.7C10.2,200,0,189.8,0,177.3V22.7C0,10.2,10.2,0,22.7,0h154.6C189.8,0,200,10.2,200,22.7v154.6
	C200,189.8,189.8,200,177.3,200z"/>
<path class="st1" d="M167.4,47.8H180v12.6h-12.6C167.4,60.4,167.4,47.8,167.4,47.8z M167.4,94.7H180v12.6h-12.6V94.7z M167.4,141.6
	H180v12.6h-12.6V141.6z"/>
<path class="st1" d="M20.4,98.5h127.8v5H20.4V98.5z M20.4,145.4h127.8v5H20.4V145.4z"/>
<rect x="20.4" y="51.3" class="st1" width="127.8" height="5"/>
</svg>
