<svg xmlns="http://www.w3.org/2000/svg" viewBox="0 0 200 200"><path d="M177.3 200H22.7C10.2 200 0 189.8 0 177.3V22.7C0 10.2 10.2 0 22.7 0h154.6C189.8 0 200 10.2 200 22.7v154.6c0 12.5-10.2 22.7-22.7 22.7z" fill="#00dbe5"/><text transform="translate(20.174 69.392)" font-size="12" font-family="AndikaNewBasic-Regular">Courses semestrielles</text><path d="M170 59.6h9.8v9.8H170v-9.8zm0 36.5h9.8v9.8H170v-9.8zm0 36.5h9.8v9.8H170v-9.8z" fill="#fff" stroke="#000" stroke-miterlimit="10"/><path d="M20 99.8h117.4v2.5H20v-2.5zm0 36.5h117.4v2.5H20v-2.5z"/></svg>