<?xml version="1.0" encoding="utf-8"?>
<!-- Generator: Adobe Illustrator 25.2.3, SVG Export Plug-In . SVG Version: 6.00 Build 0)  -->
<svg version="1.1" id="Calque_1" xmlns="http://www.w3.org/2000/svg" xmlns:xlink="http://www.w3.org/1999/xlink" x="0px" y="0px"
	 viewBox="0 0 150 150" style="enable-background:new 0 0 150 150;" xml:space="preserve">
<style type="text/css">
	.st0{fill-rule:evenodd;clip-rule:evenodd;fill:#00DBE5;}
	.st1{fill:#FFFFFF;}
</style>
<g>
	<path class="st0" d="M8.2,142.9c-5-4.8-8.2-11.6-8.2-19.1V26.3C0,11.9,11.8,0.1,26.3,0.1h97.4c14.5,0,26.3,11.8,26.3,26.3v97.4
		c0,14.5-11.8,26.3-26.3,26.3H26.3c-6.7,0-12.8-2.5-17.4-6.6L8.2,142.9z"/>
</g>
<g id="Layer_1">
	<path class="st1" d="M41.8,30.8h15.1c0.9,0,1.6,0.7,1.6,1.6v1.8c0,1.2,0.5,2.3,1.3,3.1s1.9,1.3,3.1,1.3H87c1.2,0,2.3-0.5,3.1-1.3
		c0.8-0.8,1.3-1.9,1.3-3.1v-1.8c0-0.9,0.7-1.6,1.6-1.6h15.1c1.3,0,2.5,0.5,3.3,1.4c0.8,0.9,1.4,2,1.4,3.3v87.2
		c0,1.3-0.5,2.5-1.4,3.3c-0.8,0.8-2,1.4-3.3,1.4H41.8c-1.3,0-2.5-0.5-3.3-1.4c-0.8-0.8-1.4-2-1.4-3.3V35.5c0-1.3,0.5-2.5,1.4-3.3
		C39.4,31.3,40.5,30.8,41.8,30.8L41.8,30.8z M55.3,34.1H41.8c-0.4,0-0.7,0.2-1,0.4c-0.2,0.2-0.4,0.6-0.4,1v87.2c0,0.4,0.2,0.7,0.4,1
		c0.2,0.2,0.6,0.4,1,0.4h66.4c0.4,0,0.7-0.2,1-0.4c0.2-0.2,0.4-0.6,0.4-1V35.5c0-0.4-0.2-0.7-0.4-1c-0.2-0.2-0.6-0.4-1-0.4H94.8v0.2
		c0,2.1-0.8,4.1-2.3,5.5c-1.4,1.4-3.3,2.3-5.5,2.3H63c-2.1,0-4.1-0.8-5.5-2.3c-1.4-1.4-2.3-3.3-2.3-5.5
		C55.3,34.2,55.3,34.1,55.3,34.1z"/>
	<path class="st1" d="M62.9,22.6H87c2.1,0,4.1,0.8,5.5,2.3c1.4,1.4,2.3,3.3,2.3,5.5v3.9c0,2.1-0.8,4.1-2.3,5.5
		C91.1,41.1,89.2,42,87,42H62.9c-2.1,0-4.1-0.8-5.5-2.3c-1.4-1.4-2.3-3.3-2.3-5.5v-3.9c0-2.1,0.8-4.1,2.3-5.5
		C58.9,23.5,60.8,22.6,62.9,22.6L62.9,22.6z M87.1,25.9H63c-1.2,0-2.3,0.5-3.1,1.3s-1.3,1.9-1.3,3.1v3.9c0,1.2,0.5,2.3,1.3,3.1
		s1.9,1.3,3.1,1.3h24.1c1.2,0,2.3-0.5,3.1-1.3c0.8-0.8,1.3-1.9,1.3-3.1v-3.9c0-1.2-0.5-2.3-1.3-3.1C89.4,26.4,88.3,25.9,87.1,25.9z"
		/>
	<g>
		<path class="st1" d="M47.7,49H59c0.9,0,1.6,0.7,1.6,1.6v11.3c0,0.9-0.7,1.6-1.6,1.6H47.7c-0.9,0-1.6-0.7-1.6-1.6V50.6
			C46.1,49.7,46.8,49,47.7,49L47.7,49z M57.4,52.3h-8v8h8V52.3z"/>
		<path class="st1" d="M102.4,57.9c0.8,0,1.5-0.7,1.5-1.6c0-0.9-0.7-1.6-1.5-1.6H67.8c-0.8,0-1.5,0.7-1.5,1.6c0,0.9,0.7,1.6,1.5,1.6
			H102.4z"/>
		<path class="st1" d="M47.7,71.8H59c0.9,0,1.6,0.7,1.6,1.6v11.3c0,0.9-0.7,1.6-1.6,1.6H47.7c-0.9,0-1.6-0.7-1.6-1.6V73.4
			C46,72.5,46.8,71.8,47.7,71.8L47.7,71.8z M57.3,75.1h-8v8h8V75.1L57.3,75.1z"/>
		<path class="st1" d="M47.7,94.6H59c0.9,0,1.6,0.7,1.6,1.6v11.3c0,0.9-0.7,1.6-1.6,1.6H47.7c-0.9,0-1.6-0.7-1.6-1.6V96.2
			C46,95.3,46.8,94.6,47.7,94.6L47.7,94.6z M57.3,97.9h-8v8h8V97.9L57.3,97.9z"/>
		<path class="st1" d="M102.4,80.7c0.8,0,1.5-0.7,1.5-1.6s-0.7-1.6-1.5-1.6H67.8c-0.8,0-1.5,0.7-1.5,1.6s0.7,1.6,1.5,1.6H102.4z"/>
		<path class="st1" d="M102.4,103.6c0.8,0,1.5-0.7,1.5-1.6s-0.7-1.6-1.5-1.6H67.8c-0.8,0-1.5,0.7-1.5,1.6s0.7,1.6,1.5,1.6H102.4z"/>
	</g>
</g>
</svg>
