<svg version="1.1" id="Calque_1" xmlns="http://www.w3.org/2000/svg" x="0" y="0" viewBox="0 0 150 150" xml:space="preserve"><style>.st1{fill:#fff}</style><path d="M8.2 142.9c-5-4.8-8.2-11.6-8.2-19.1V26.3C0 11.9 11.8.1 26.3.1h97.4C138.2.1 150 11.9 150 26.4v97.4c0 14.5-11.8 26.3-26.3 26.3H26.3c-6.7 0-12.8-2.5-17.4-6.6l-.7-.6z" fill-rule="evenodd" clip-rule="evenodd" fill="#00dbe5"/><g id="Layer_1"><path class="st1" d="M41.8 30.8h15.1c.9 0 1.6.7 1.6 1.6v1.8c0 1.2.5 2.3 1.3 3.1s1.9 1.3 3.1 1.3H87c1.2 0 2.3-.5 3.1-1.3.8-.8 1.3-1.9 1.3-3.1v-1.8c0-.9.7-1.6 1.6-1.6h15.1c1.3 0 2.5.5 3.3 1.4.8.9 1.4 2 1.4 3.3v87.2c0 1.3-.5 2.5-1.4 3.3-.8.8-2 1.4-3.3 1.4H41.8c-1.3 0-2.5-.5-3.3-1.4-.8-.8-1.4-2-1.4-3.3V35.5c0-1.3.5-2.5 1.4-3.3.9-.9 2-1.4 3.3-1.4zm13.5 3.3H41.8c-.4 0-.7.2-1 .4-.2.2-.4.6-.4 1v87.2c0 .4.2.7.4 1 .2.2.6.4 1 .4h66.4c.4 0 .7-.2 1-.4.2-.2.4-.6.4-1V35.5c0-.4-.2-.7-.4-1-.2-.2-.6-.4-1-.4H94.8v.2c0 2.1-.8 4.1-2.3 5.5-1.4 1.4-3.3 2.3-5.5 2.3H63c-2.1 0-4.1-.8-5.5-2.3-1.4-1.4-2.3-3.3-2.3-5.5.1-.1.1-.2.1-.2z"/><path class="st1" d="M62.9 22.6H87c2.1 0 4.1.8 5.5 2.3 1.4 1.4 2.3 3.3 2.3 5.5v3.9c0 2.1-.8 4.1-2.3 5.5-1.4 1.3-3.3 2.2-5.5 2.2H62.9c-2.1 0-4.1-.8-5.5-2.3-1.4-1.4-2.3-3.3-2.3-5.5v-3.9c0-2.1.8-4.1 2.3-5.5 1.5-1.3 3.4-2.2 5.5-2.2zm24.2 3.3H63c-1.2 0-2.3.5-3.1 1.3s-1.3 1.9-1.3 3.1v3.9c0 1.2.5 2.3 1.3 3.1s1.9 1.3 3.1 1.3h24.1c1.2 0 2.3-.5 3.1-1.3.8-.8 1.3-1.9 1.3-3.1v-3.9c0-1.2-.5-2.3-1.3-3.1-.8-.8-1.9-1.3-3.1-1.3zM47.7 49H59c.9 0 1.6.7 1.6 1.6v11.3c0 .9-.7 1.6-1.6 1.6H47.7c-.9 0-1.6-.7-1.6-1.6V50.6c0-.9.7-1.6 1.6-1.6zm9.7 3.3h-8v8h8v-8zM102.4 57.9c.8 0 1.5-.7 1.5-1.6 0-.9-.7-1.6-1.5-1.6H67.8c-.8 0-1.5.7-1.5 1.6 0 .9.7 1.6 1.5 1.6h34.6zM47.7 71.8H59c.9 0 1.6.7 1.6 1.6v11.3c0 .9-.7 1.6-1.6 1.6H47.7c-.9 0-1.6-.7-1.6-1.6V73.4c-.1-.9.7-1.6 1.6-1.6zm9.6 3.3h-8v8h8v-8zM47.7 94.6H59c.9 0 1.6.7 1.6 1.6v11.3c0 .9-.7 1.6-1.6 1.6H47.7c-.9 0-1.6-.7-1.6-1.6V96.2c-.1-.9.7-1.6 1.6-1.6zm9.6 3.3h-8v8h8v-8zM102.4 80.7c.8 0 1.5-.7 1.5-1.6s-.7-1.6-1.5-1.6H67.8c-.8 0-1.5.7-1.5 1.6s.7 1.6 1.5 1.6h34.6zM102.4 103.6c.8 0 1.5-.7 1.5-1.6s-.7-1.6-1.5-1.6H67.8c-.8 0-1.5.7-1.5 1.6s.7 1.6 1.5 1.6h34.6z"/></g></svg>