<svg xmlns="http://www.w3.org/2000/svg" viewBox="0 0 283.5 91"><path d="M6.8 85.8C-1.6 66.3-4.3 29 10.9 12.5c1.3 19.9-8.3 44.9-4.5 65.2 3 22.6 58.8-47.9 65.6-53.9C79 16.7 84.3 6.5 91.9 0c4.5.6 4.2 6.2.5 8.8-14.9 11.6-68.9 93.7-85.6 77zm59 2.7c16.9-58.2 31.8-48 4.1 1.3-1.3.5-3.6.3-4.1-1.3zm21.1-57.7c-.3-.5-.3-3.7 0-4 10.6-4.6 4.9 15.2 0 4zm19 57.7c.3-11 7.9-22.8 8.1-34-5.3-.8-14.4 5.3-17.7-1.3 3.1-6.3 11.3-4.4 17-6.3 10.4-5 10.5-28.9 18.5-38.6 12.6 1.9-8.6 25.9-4.2 34.5h25.8s.3.3.6.8c4.4 7.3-16.9 3.2-20.9 5.2-18.6-2.8-17.2 48.3-27.2 39.7zm50.9 0c-13.9-5.7-8.4-23 1.5-30.5 9.6-9.1 20.8-24 34.2-25 4.2 7.1 2.6 19.6-6.2 23.2-56.7 28-26.9 33.1 14.8 18.3l1.5 1.3c-10.3 10.3-31.7 15.5-45.8 12.7zm28.7-45.9c-6.8 4.2-15.9 11.4-21.6 16.9 5.4 1.6 31.6-11.7 21.6-16.9zm20.4-11.1s.2-.5.3-1.1c.2-.6.5-1.5.6-2.3.3-.8.6-1.6 1-2.6.3-.8.5-1.6.6-2.1 1.1-3.2 2.1-4.9 2.9-4.9s1.1.8 1.5 2.6c.2 1.8.3 4.1 0 6.8-.2 2.8-.6 5.3-1.1 7.6-.6 2.4-1.5 4.2-2.3 5.5s-2.1 1.3-3.4-.2v-7.6c-.1-.6-.1-1.3-.1-1.7z" fill="#fff"/><path d="M223.9 91c-4.9-16.2 103.9-36.3 14.3-48-19.7-3-6.1-13.1 4.7-19.7 9.1-4.4 31.7-26.5 38.2-11.5-11.3 10.5-27.2 14.3-39.6 24.4-1.6 7.7 36.6 4.9 41.5 17.1 5.4 19-44.1 37-59.1 37.7z" fill="#00dbe5"/></svg>