<?xml version="1.0" encoding="utf-8"?>
<!-- Generator: Adobe Illustrator 25.2.1, SVG Export Plug-In . SVG Version: 6.00 Build 0)  -->
<svg version="1.1" id="Calque_1" xmlns="http://www.w3.org/2000/svg" xmlns:xlink="http://www.w3.org/1999/xlink" x="0px" y="0px"
	 viewBox="0 0 283.5 91" style="enable-background:new 0 0 283.5 91;" xml:space="preserve">
<style type="text/css">
	.st0{fill:#FFFFFF;}
	.st1{fill:#54C0D2;}
</style>
<path class="st0" d="M6.8,85.8C-1.6,66.3-4.3,29,10.9,12.5c1.3,19.9-8.3,44.9-4.5,65.2C9.4,100.3,65.2,29.8,72,23.8
	C79,16.7,84.3,6.5,91.9,0c4.5,0.6,4.2,6.2,0.5,8.8C77.5,20.4,23.5,102.5,6.8,85.8z M65.8,88.5c16.9-58.2,31.8-48,4.1,1.3
	C68.6,90.3,66.3,90.1,65.8,88.5z M86.9,30.8c-0.3-0.5-0.3-3.7,0-4C97.5,22.2,91.8,42,86.9,30.8z M105.9,88.5c0.3-11,7.9-22.8,8.1-34
	c-5.3-0.8-14.4,5.3-17.7-1.3c3.1-6.3,11.3-4.4,17-6.3c10.4-5,10.5-28.9,18.5-38.6c12.6,1.9-8.6,25.9-4.2,34.5h25.8
	c0,0,0.3,0.3,0.6,0.8c4.4,7.3-16.9,3.2-20.9,5.2C114.5,46,115.9,97.1,105.9,88.5L105.9,88.5z M156.8,88.5c-13.9-5.7-8.4-23,1.5-30.5
	c9.6-9.1,20.8-24,34.2-25c4.2,7.1,2.6,19.6-6.2,23.2c-56.7,28-26.9,33.1,14.8,18.3l1.5,1.3C192.3,86.1,170.9,91.3,156.8,88.5
	L156.8,88.5z M185.5,42.6c-6.8,4.2-15.9,11.4-21.6,16.9C169.3,61.1,195.5,47.8,185.5,42.6z M205.9,31.5c0,0,0.2-0.5,0.3-1.1
	c0.2-0.6,0.5-1.5,0.6-2.3c0.3-0.8,0.6-1.6,1-2.6c0.3-0.8,0.5-1.6,0.6-2.1c1.1-3.2,2.1-4.9,2.9-4.9s1.1,0.8,1.5,2.6
	c0.2,1.8,0.3,4.1,0,6.8c-0.2,2.8-0.6,5.3-1.1,7.6c-0.6,2.4-1.5,4.2-2.3,5.5s-2.1,1.3-3.4-0.2v-1.8v-2.9v-2.9
	C205.9,32.6,205.9,31.9,205.9,31.5z"/>
<path class="st1" d="M223.9,91c-4.9-16.2,103.9-36.3,14.3-48c-19.7-3-6.1-13.1,4.7-19.7c9.1-4.4,31.7-26.5,38.2-11.5
	c-11.3,10.5-27.2,14.3-39.6,24.4c-1.6,7.7,36.6,4.9,41.5,17.1C288.4,72.3,238.9,90.3,223.9,91L223.9,91z"/>
</svg>
