<svg version="1.1" id="Calque_1" xmlns="http://www.w3.org/2000/svg" x="0" y="0" viewBox="0 0 283.46 91.04" xml:space="preserve"><style>.st0{fill:#020203}</style><path class="st0" d="M6.85 85.75C-1.57 66.3-4.33 29.02 10.91 12.49c1.3 19.94-8.27 44.9-4.54 65.16 3.08 22.69 58.84-47.82 65.65-53.81C78.98 16.7 84.33 6.49 91.95.01c4.54.65 4.21 6.16.49 8.75-14.92 11.67-68.89 93.69-85.59 76.99zM65.85 88.51c16.86-58.19 31.77-47.98 4.05 1.3-1.29.48-3.56.32-4.05-1.3zM86.93 30.8c-.32-.49-.32-3.73 0-4.05 10.53-4.54 4.86 15.24 0 4.05zM105.89 88.51c.32-11.02 7.94-22.85 8.1-34.04-5.35-.81-14.43 5.35-17.67-1.3 3.08-6.32 11.35-4.38 17.02-6.32 10.37-5.02 10.54-28.85 18.48-38.58 12.64 1.95-8.59 25.93-4.21 34.52h25.77s.32.32.65.81c4.38 7.29-16.86 3.24-20.91 5.19-18.64-2.75-17.18 48.31-27.23 39.72zM156.79 88.51c-13.94-5.67-8.43-23.02 1.46-30.47 9.56-9.08 20.75-23.99 34.2-24.96 4.21 7.13 2.59 19.61-6.16 23.18-56.73 28.04-26.91 33.07 14.75 18.32l1.46 1.3c-10.22 10.2-31.61 15.38-45.71 12.63zm28.68-45.87c-6.81 4.21-15.88 11.35-21.56 16.86 5.36 1.61 31.61-11.68 21.56-16.86zM205.9 31.45s.16-.49.32-1.13c.16-.65.49-1.46.65-2.27.32-.81.65-1.62.97-2.59.32-.81.49-1.62.65-2.11 1.13-3.24 2.11-4.86 2.92-4.86s1.13.81 1.46 2.59c.16 1.78.32 4.05 0 6.81-.16 2.76-.65 5.35-1.13 7.62-.65 2.43-1.46 4.21-2.27 5.51-.81 1.3-2.11 1.3-3.4-.16v-1.78-2.92-2.92c-.17-.65-.17-1.3-.17-1.79z"/><path d="M223.94 91.03c-4.93-16.16 103.92-36.3 14.31-48.01-19.71-3.04-6.1-13.11 4.69-19.67 9.15-4.45 31.67-26.46 38.24-11.48-11.26 10.54-27.21 14.29-39.65 24.36-1.64 7.73 36.6 4.92 41.52 17.1 5.4 18.97-44.1 37-59.11 37.7z" fill="#54c0d2"/></svg>