<svg version="1.1" id="Calque_1" xmlns="http://www.w3.org/2000/svg" x="0" y="0" viewBox="0 0 113.4 113.4" xml:space="preserve"><style>.st0{fill:#fff}.st1{fill:#00dbe5}</style><ellipse transform="rotate(-7.678 80.99 95.568)" class="st0" cx="81" cy="95.6" rx="24.9" ry="16.7"/><ellipse transform="rotate(-7.678 32.596 17.361)" class="st0" cx="32.6" cy="17.4" rx="24.9" ry="16.7"/><path class="st0" d="M109.2.4L.4 109.6c-.6.5-.5 1.4.1 1.9l1.7 1.5c.6.5 1.4.5 2-.1L113 3.8c.6-.5.5-1.4-.1-1.9L111.2.4c-.5-.5-1.5-.5-2 0z"/><ellipse transform="rotate(-7.671 32.585 17.355)" class="st1" cx="32.6" cy="17.4" rx="19.2" ry="12.8"/><ellipse transform="rotate(-7.671 80.962 95.537)" class="st1" cx="81" cy="95.6" rx="19.2" ry="12.8"/></svg>