<svg version="1.1" id="Calque_1" xmlns="http://www.w3.org/2000/svg" x="0" y="0" viewBox="0 0 200 200" xml:space="preserve"><style>.st1{fill:#fff}</style><path d="M177.3 200H22.7C10.2 200 0 189.8 0 177.3V22.7C0 10.2 10.2 0 22.7 0h154.6C189.8 0 200 10.2 200 22.7v154.6c0 12.5-10.2 22.7-22.7 22.7z" fill="#00dbe5"/><path class="st1" d="M39.9 40.2h10v49.7h-10V40.2zm0 69.7h10v50.3h-10v-50.3zm110-69.7h10v49.7h-10V40.2zm0 70h10v49.7h-10v-49.7z"/><path class="st1" d="M39.9 150.2h50.3v10H39.9v-10zm69.7 0h50.3v10h-50.3v-10zm0-110h50.3v10h-50.3v-10zm-69.7 0h50.3v10H39.9v-10z"/></svg>