<?xml version="1.0" encoding="utf-8"?>
<!-- Generator: Adobe Illustrator 25.2.1, SVG Export Plug-In . SVG Version: 6.00 Build 0)  -->
<svg version="1.1" id="Calque_1" xmlns="http://www.w3.org/2000/svg" xmlns:xlink="http://www.w3.org/1999/xlink" x="0px" y="0px"
	 viewBox="0 0 10 110" style="enable-background:new 0 0 10 110;" xml:space="preserve">
<style type="text/css">
	.st0{fill:#FFFFFF;}
</style>
<path class="st0" d="M1,60h8c0.6,0,1,0.4,1,1v48c0,0.6-0.4,1-1,1H1c-0.6,0-1-0.4-1-1V61C0,60.4,0.4,60,1,60z"/>
<path class="st0" d="M1,0h8c0.6,0,1,0.4,1,1v23c0,0.6-0.4,1-1,1H1c-0.6,0-1-0.4-1-1V1C0,0.4,0.4,0,1,0z"/>
<path d="M165,102.7v8c0,0.6-0.4,1-1,1h-48c-0.6,0-1-0.4-1-1v-8c0-0.6,0.4-1,1-1h48C164.6,101.7,165,102.1,165,102.7z"/>
<path d="M80,102.7v8c0,0.6-0.4,1-1,1H31c-0.6,0-1-0.4-1-1v-8c0-0.6,0.4-1,1-1h48C79.6,101.7,80,102.1,80,102.7z"/>
<path d="M250,102.8v8c0,0.6-0.4,1-1,1h-48c-0.6,0-1-0.4-1-1v-8c0-0.6,0.4-1,1-1h48C249.6,101.8,250,102.2,250,102.8z"/>
<path d="M271,61.7h8c0.6,0,1,0.4,1,1v48c0,0.6-0.4,1-1,1h-8c-0.6,0-1-0.4-1-1v-48C270,62.1,270.4,61.7,271,61.7z"/>
<path d="M271-23.3h8c0.6,0,1,0.4,1,1v48c0,0.6-0.4,1-1,1h-8c-0.6,0-1-0.4-1-1v-48C270-22.9,270.4-23.3,271-23.3z"/>
</svg>
