<?xml version="1.0" encoding="utf-8"?>
<!-- Generator: Adobe Illustrator 25.2.1, SVG Export Plug-In . SVG Version: 6.00 Build 0)  -->
<svg version="1.1" id="Calque_1" xmlns="http://www.w3.org/2000/svg" xmlns:xlink="http://www.w3.org/1999/xlink" x="0px" y="0px"
	 viewBox="0 0 10 110" style="enable-background:new 0 0 10 110;" xml:space="preserve">
<path d="M1,60h8c0.6,0,1,0.4,1,1v48c0,0.6-0.4,1-1,1H1c-0.6,0-1-0.4-1-1V61C0,60.4,0.4,60,1,60z"/>
<path d="M1,0h8c0.6,0,1,0.4,1,1v23c0,0.6-0.4,1-1,1H1c-0.6,0-1-0.4-1-1V1C0,0.4,0.4,0,1,0z"/>
</svg>
