<?xml version="1.0" encoding="utf-8"?>
<!-- Generator: Adobe Illustrator 25.2.1, SVG Export Plug-In . SVG Version: 6.00 Build 0)  -->
<svg version="1.1" id="Calque_1" xmlns="http://www.w3.org/2000/svg" xmlns:xlink="http://www.w3.org/1999/xlink" x="0px" y="0px"
	 viewBox="0 0 10 110" style="enable-background:new 0 0 10 110;" xml:space="preserve">
<path d="M-269,85h8c0.6,0,1,0.4,1,1v48c0,0.6-0.4,1-1,1h-8c-0.6,0-1-0.4-1-1V86C-270,85.4-269.6,85-269,85z"/>
<path d="M-269,25h8c0.6,0,1,0.4,1,1v23c0,0.6-0.4,1-1,1h-8c-0.6,0-1-0.4-1-1V26C-270,25.4-269.6,25-269,25z"/>
<path d="M-105,126v8c0,0.6-0.4,1-1,1h-48c-0.6,0-1-0.4-1-1v-8c0-0.6,0.4-1,1-1h48C-105.4,125-105,125.4-105,126z"/>
<path d="M-190,126v8c0,0.6-0.4,1-1,1h-48c-0.6,0-1-0.4-1-1v-8c0-0.6,0.4-1,1-1h48C-190.4,125-190,125.4-190,126z"/>
<path d="M-20,126.1v8c0,0.6-0.4,1-1,1h-48c-0.6,0-1-0.4-1-1v-8c0-0.6,0.4-1,1-1h48C-20.4,125.1-20,125.5-20,126.1z"/>
<path d="M1,60h8c0.6,0,1,0.4,1,1v48c0,0.6-0.4,1-1,1H1c-0.6,0-1-0.4-1-1V61C0,60.4,0.4,60,1,60z"/>
<path d="M1,0h8c0.6,0,1,0.4,1,1v23c0,0.6-0.4,1-1,1H1c-0.6,0-1-0.4-1-1V1C0,0.4,0.4,0,1,0z"/>
</svg>
